<svg xmlns="http://www.w3.org/2000/svg" width="263" height="261" viewBox="0 0 263 261" fill="none">
<path d="M67.9043 72.3802C66.0207 73.8564 64.2268 74.6616 62.4777 74.8182C60.7285 74.9748 59.2037 74.4379 57.8806 73.2301C56.4903 71.9552 55.8176 70.4118 55.8625 68.5777C55.9073 66.7436 56.6473 65.0437 58.1049 63.4557C59.3607 62.0913 60.8631 61.1742 62.5673 60.7045C64.294 60.2571 65.9534 60.3242 67.568 60.9282L65.774 65.245C64.9892 64.9543 64.2043 64.9095 63.4195 65.0885C62.6346 65.2674 61.9619 65.67 61.4013 66.2739C60.8631 66.8555 60.5716 67.4594 60.5043 68.0857C60.437 68.7119 60.6388 69.2488 61.0873 69.6514C61.5134 70.0316 62.0292 70.1434 62.6795 69.9645C63.3073 69.7856 64.1371 69.3382 65.1237 68.6001C67.0522 67.1462 68.9134 66.341 70.7298 66.2068C72.5462 66.0502 74.0935 66.5871 75.3941 67.7725C76.762 69.0251 77.3899 70.5684 77.3002 72.4249C77.2105 74.2814 76.4256 76.026 74.9007 77.6588C73.645 79.0232 72.165 79.9626 70.4607 80.4771C68.7565 80.9915 67.1195 80.9915 65.5498 80.4547L67.0074 75.78C67.8595 76.0931 68.7116 76.1826 69.5413 76.0036C70.371 75.8247 71.0662 75.4221 71.6716 74.7735C72.2322 74.1695 72.5462 73.5209 72.6359 72.8499C72.7256 72.1789 72.5238 71.642 72.0753 71.2394C71.2456 70.479 69.8553 70.8368 67.9492 72.3578L67.9043 72.3802Z" fill="#144433"/>
<path d="M82.054 56.2757C81.0897 54.3522 80.6637 52.4286 80.7534 50.4603C80.8655 48.492 81.4485 46.725 82.5473 45.1369C83.6237 43.5488 85.0588 42.3186 86.8528 41.4016C88.6467 40.5069 90.508 40.0819 92.414 40.1714C94.3425 40.2385 96.1141 40.82 97.7735 41.916C99.4329 42.9896 100.733 44.4882 101.698 46.4118C102.438 47.8657 102.841 49.3419 102.976 50.8405C103.088 52.3615 102.931 53.7706 102.483 55.0903C102.034 56.41 101.339 57.6178 100.397 58.7361C99.4553 59.8321 98.2892 60.7268 96.9662 61.3978C95.6207 62.0689 94.2304 62.4715 92.7728 62.5609C91.3152 62.6504 89.9249 62.5162 88.6019 62.0912C87.2789 61.6662 86.0231 60.9505 84.8795 59.944C83.7358 58.9598 82.794 57.7296 82.054 56.2757ZM86.1352 54.218C87.0098 55.9626 88.3104 57.1257 89.9922 57.6849C91.674 58.2441 93.311 58.1099 94.9256 57.3046C96.5401 56.4994 97.6165 55.2469 98.1547 53.5693C98.6929 51.8918 98.5359 50.1695 97.6389 48.4249C96.7644 46.7026 95.5086 45.5842 93.8268 45.0474C92.1674 44.5106 90.508 44.6448 88.9158 45.45C87.3013 46.2552 86.2249 47.4854 85.6643 49.163C85.1037 50.8182 85.2607 52.5181 86.1352 54.218Z" fill="#144433"/>
<path d="M116.543 48.5145C115.444 46.8593 114.839 45.0029 114.682 42.9227C114.547 40.8426 114.883 38.919 115.735 37.1296C116.588 35.3402 117.821 33.9087 119.436 32.8351C121.05 31.7391 122.889 31.1352 124.929 31.001C127.239 30.8444 129.369 31.3141 131.298 32.4325C133.249 33.5509 134.774 35.1389 135.873 37.2414L131.41 39.165C130.805 37.9572 129.93 37.0178 128.831 36.3915C127.733 35.7428 126.522 35.4744 125.199 35.5639C123.382 35.6981 121.902 36.4362 120.736 37.8006C119.592 39.165 119.077 40.7755 119.211 42.6543C119.346 44.5331 120.086 46.0541 121.409 47.2396C122.732 48.425 124.324 48.9619 126.14 48.8276C127.486 48.7382 128.674 48.2685 129.706 47.4185C130.715 46.5686 131.455 45.4726 131.881 44.1082L136.59 45.3607C135.828 47.6646 134.55 49.521 132.733 50.9749C130.917 52.4064 128.831 53.2116 126.477 53.3682C124.436 53.5024 122.53 53.1669 120.781 52.3169C119.032 51.467 117.597 50.2144 116.52 48.5816L116.543 48.5145Z" fill="#144433"/>
<path d="M151.592 55.0906L147.152 54.0617L151.928 33.3721L156.368 34.401L151.592 55.0906Z" fill="#144433"/>
<path d="M165.921 60.1677L161.369 57.5284L179.196 43.3252L184.399 46.3448L180.766 68.8238L176.236 66.1845L179.488 48.917L165.921 60.1901V60.1677ZM170.563 52.6747L180.609 58.5349L178.457 62.2031L168.41 56.3429L170.563 52.6747Z" fill="#144433"/>
<path d="M194.131 76.4512L200.836 84.6823L197.338 87.523L187.74 75.7578L204.245 62.3599L207.115 65.8939L194.109 76.4512H194.131Z" fill="#144433"/>
<path d="M54.1357 185.916C54.786 184.06 55.8848 182.427 57.4545 181.062C59.0242 179.676 60.7733 178.781 62.7018 178.378C64.6303 177.976 66.5364 178.088 68.3752 178.691C70.214 179.318 71.8285 180.391 73.174 181.935C74.6988 183.657 75.6182 185.625 75.9097 187.862C76.2013 190.076 75.8649 192.268 74.8558 194.393L70.6176 192.022C71.2006 190.792 71.4249 189.562 71.2679 188.287C71.1109 187.034 70.5952 185.894 69.7206 184.91C68.5097 183.545 67.0297 182.807 65.2357 182.718C63.4418 182.628 61.8497 183.21 60.4369 184.44C59.0242 185.692 58.2393 187.191 58.1272 188.958C57.9927 190.725 58.5309 192.313 59.7418 193.677C60.6388 194.684 61.7375 195.355 63.0157 195.646C64.2939 195.937 65.617 195.847 66.9848 195.355L68.8461 199.851C66.5588 200.656 64.2939 200.768 62.0291 200.209C59.7642 199.65 57.8805 198.464 56.3333 196.719C54.9878 195.198 54.1133 193.476 53.7096 191.553C53.3284 189.651 53.4405 187.75 54.0908 185.894L54.1357 185.916Z" fill="#144433"/>
<path d="M81.5381 204.772C82.5023 202.87 83.8254 201.372 85.4624 200.276C87.1218 199.202 88.8933 198.621 90.8218 198.554C92.7503 198.486 94.5891 198.889 96.383 199.806C98.177 200.723 99.6121 201.953 100.688 203.541C101.765 205.13 102.37 206.897 102.46 208.865C102.572 210.833 102.124 212.779 101.159 214.68C100.419 216.134 99.4776 217.342 98.3339 218.326C97.1903 219.31 95.9345 220.026 94.6115 220.451C93.2884 220.876 91.8981 221.033 90.4406 220.921C88.983 220.809 87.5927 220.406 86.2472 219.735C84.9017 219.064 83.7581 218.17 82.8163 217.074C81.8745 215.978 81.1793 214.747 80.7308 213.428C80.2823 212.108 80.1254 210.699 80.2375 209.178C80.3496 207.657 80.7757 206.181 81.5157 204.749L81.5381 204.772ZM85.5969 206.829C84.6999 208.574 84.5429 210.296 85.0811 211.974C85.6193 213.651 86.6957 214.904 88.3102 215.709C89.9248 216.514 91.5618 216.649 93.2436 216.089C94.9254 215.53 96.2036 214.39 97.1006 212.623C97.9751 210.9 98.1321 209.223 97.5715 207.568C97.0109 205.912 95.9345 204.66 94.32 203.855C92.7054 203.049 91.0684 202.915 89.409 203.452C87.7496 203.989 86.4714 205.107 85.5969 206.829Z" fill="#144433"/>
<path d="M118.314 216.112L128.159 217.297L127.62 221.749L117.776 220.563L116.767 228.906L112.237 228.369L114.771 207.299L129.863 209.111L129.325 213.562L118.763 212.31L118.314 216.134V216.112Z" fill="#144433"/>
<path d="M145.268 216.022L155.001 214.166L155.853 218.572L146.121 220.429L147.713 228.682L143.228 229.532L139.214 208.686L154.148 205.823L155.001 210.229L144.551 212.22L145.268 216V216.022Z" fill="#144433"/>
<path d="M170.9 207.702L179.578 202.938L181.753 206.874L173.075 211.639L174.958 215.061L184.287 209.939L186.462 213.875L173.142 221.189L162.872 202.602L176.192 195.288L178.367 199.225L169.038 204.347L170.9 207.724V207.702Z" fill="#144433"/>
<path d="M192.786 191.91L199.603 184.731L202.877 187.817L196.06 194.997L198.908 197.681L206.218 189.965L209.492 193.051L199.042 204.078L183.569 189.495L194.019 178.468L197.293 181.554L189.983 189.271L192.786 191.91Z" fill="#144433"/>
<path d="M41.8473 133.89C46.2686 133.89 49.8528 130.315 49.8528 125.905C49.8528 121.495 46.2686 117.92 41.8473 117.92C37.426 117.92 33.8418 121.495 33.8418 125.905C33.8418 130.315 37.426 133.89 41.8473 133.89Z" fill="#144433"/>
<path d="M221.152 133.89C225.574 133.89 229.158 130.315 229.158 125.905C229.158 121.495 225.574 117.92 221.152 117.92C216.731 117.92 213.147 121.495 213.147 125.905C213.147 130.315 216.731 133.89 221.152 133.89Z" fill="#144433"/>
<path d="M216.197 162.319C218.352 162.319 220.099 160.576 220.099 158.427C220.099 156.278 218.352 154.535 216.197 154.535C214.042 154.535 212.295 156.278 212.295 158.427C212.295 160.576 214.042 162.319 216.197 162.319Z" fill="#144433"/>
<path d="M46.8032 162.319C48.9581 162.319 50.7051 160.576 50.7051 158.427C50.7051 156.278 48.9581 154.535 46.8032 154.535C44.6483 154.535 42.9014 156.278 42.9014 158.427C42.9014 160.576 44.6483 162.319 46.8032 162.319Z" fill="#144433"/>
<path d="M110.555 103.403C123.382 103.672 133.338 115.661 135.491 127.672C137.263 136.216 138.967 144.581 142.532 152.499C143.743 155.072 145.089 157.666 147.286 159.657C144.371 158.628 142.196 156.212 140.29 153.864C126.88 136.395 134.594 113.58 110.555 103.403Z" fill="#144433"/>
<path d="M144.08 167.374C140.245 167.374 136.074 166.367 131.769 164.354C123.651 160.552 115.892 153.528 109.905 144.604C103.94 135.679 100.419 125.838 100.016 116.891C99.5898 107.452 102.639 100.071 108.627 96.1117C120.714 88.0595 140.223 96.7827 153.027 115.907C165.831 135.053 166.392 156.347 154.305 164.399C151.345 166.367 147.869 167.374 144.057 167.374H144.08ZM118.83 98.505C116.139 98.505 113.672 99.1537 111.609 100.54C107.259 103.448 105.039 109.174 105.375 116.667C105.734 124.652 108.941 133.532 114.367 141.651C119.817 149.793 126.791 156.145 134.056 159.523C140.873 162.721 147.017 162.878 151.368 159.97C160.651 153.797 159.373 134.964 148.609 118.859C140.245 106.356 128.158 98.505 118.83 98.505Z" fill="#144433"/>
<path d="M131.5 200.298C92.7728 200.298 61.2666 168.872 61.2666 130.244C61.2666 91.6159 92.7728 60.1899 131.5 60.1899C170.227 60.1899 201.733 91.6159 201.733 130.244C201.733 168.872 170.227 200.298 131.5 200.298ZM131.5 64.5292C95.1722 64.5292 65.5945 94.0091 65.5945 130.266C65.5945 166.524 95.1498 196.004 131.5 196.004C167.85 196.004 197.405 166.524 197.405 130.266C197.405 94.0091 167.85 64.5292 131.5 64.5292Z" fill="#144433"/>
<path d="M131.5 244.921C68.1063 244.921 16.5303 193.476 16.5303 130.244C16.5303 67.0119 68.1063 15.5674 131.5 15.5674C194.894 15.5674 246.47 67.0119 246.47 130.244C246.47 193.476 194.894 244.921 131.5 244.921ZM131.5 19.8843C70.4833 19.8843 20.8582 69.3829 20.8582 130.244C20.8582 191.105 70.4833 240.604 131.5 240.604C192.517 240.604 242.142 191.105 242.142 130.244C242.142 69.3829 192.517 19.8843 131.5 19.8843Z" fill="#144433"/>
<path d="M131.5 260.511C59.4953 260.511 0.922852 202.088 0.922852 130.267C0.922852 58.4455 59.4953 0 131.5 0C203.505 0 262.077 58.4231 262.077 130.244C262.077 202.065 203.505 260.488 131.5 260.488V260.511ZM131.5 4.31687C61.8723 4.31687 5.25075 60.8164 5.25075 130.244C5.25075 199.672 61.8947 256.171 131.5 256.171C201.105 256.171 257.749 199.672 257.749 130.244C257.749 60.8164 201.128 4.31687 131.5 4.31687Z" fill="#144433"/>
</svg>