<svg width="26" height="26" viewBox="0 0 26 26" fill="none" xmlns="http://www.w3.org/2000/svg">
<g clip-path="url(#clip0_692_4303)">
<path d="M25.048 9.82454L16.8309 1.60638C15.8139 0.592366 14.4364 0.0229492 13.0003 0.0229492C11.5641 0.0229492 10.1866 0.592366 9.16959 1.60638L0.952507 9.82454C0.649635 10.1255 0.409508 10.4835 0.246047 10.878C0.0825853 11.2724 -0.000958793 11.6953 0.000257227 12.1223V22.7574C0.000257227 23.6193 0.342667 24.446 0.95216 25.0555C1.56165 25.665 2.3883 26.0074 3.25026 26.0074H22.7503C23.6122 26.0074 24.4389 25.665 25.0484 25.0555C25.6578 24.446 26.0003 23.6193 26.0003 22.7574V12.1223C26.0015 11.6953 25.9179 11.2724 25.7545 10.878C25.591 10.4835 25.3509 10.1255 25.048 9.82454ZM16.2503 23.8407H9.75026V19.5789C9.75026 18.7169 10.0927 17.8903 10.7022 17.2808C11.3117 16.6713 12.1383 16.3289 13.0003 16.3289C13.8622 16.3289 14.6889 16.6713 15.2984 17.2808C15.9078 17.8903 16.2503 18.7169 16.2503 19.5789V23.8407ZM23.8336 22.7574C23.8336 23.0447 23.7195 23.3202 23.5163 23.5234C23.3131 23.7266 23.0376 23.8407 22.7503 23.8407H18.4169V19.5789C18.4169 18.1423 17.8462 16.7645 16.8304 15.7487C15.8146 14.7329 14.4368 14.1622 13.0003 14.1622C11.5637 14.1622 10.1859 14.7329 9.1701 15.7487C8.15427 16.7645 7.58359 18.1423 7.58359 19.5789V23.8407H3.25026C2.96294 23.8407 2.68739 23.7266 2.48423 23.5234C2.28106 23.3202 2.16692 23.0447 2.16692 22.7574V12.1223C2.16793 11.8352 2.28196 11.56 2.48434 11.3564L10.7014 3.14146C11.3121 2.53363 12.1386 2.1924 13.0003 2.1924C13.8619 2.1924 14.6884 2.53363 15.2991 3.14146L23.5162 11.3596C23.7178 11.5625 23.8317 11.8363 23.8336 12.1223V22.7574Z" fill="white"/>
</g>
<defs>
<clipPath id="clip0_692_4303">
<rect width="26" height="26" fill="white"/>
</clipPath>
</defs>
</svg>
