<svg width="350" height="29" viewBox="0 0 350 29" fill="none" xmlns="http://www.w3.org/2000/svg">
<path d="M10.215 28.8233C7.66124 28.8233 5.48204 28.2274 3.67739 27.0527C1.87274 25.8609 0.646949 24.2606 0 22.2516L1.8387 21.1791C2.34945 22.9326 3.31987 24.3117 4.74997 25.2991C6.18007 26.3036 8.00174 26.7973 10.215 26.7973C12.4282 26.7973 14.1478 26.2866 15.3906 25.2821C16.6334 24.2776 17.2463 22.9156 17.2463 21.2131C17.2463 19.6979 16.6674 18.5061 15.4927 17.6549C14.3691 16.8547 12.5644 16.0545 10.0277 15.2203L8.03579 14.5734L6.28222 13.8924C5.46502 13.5519 4.88617 13.2625 4.56269 13.0582C3.28582 12.258 2.46861 11.5429 2.09406 10.896C1.48117 9.84043 1.17473 8.69974 1.17473 7.508C1.17473 5.24367 1.97489 3.43902 3.57524 2.07702C5.19262 0.698 7.21858 0 9.63613 0C11.7643 0 13.6029 0.527753 15.1692 1.60033C16.7185 2.6729 17.8762 4.08599 18.6253 5.87361L16.8377 6.87808C15.5438 3.66036 13.1433 2.04299 9.65316 2.04299C7.76339 2.04299 6.24816 2.5367 5.09046 3.54117C3.93277 4.54565 3.35392 5.83957 3.35392 7.42289C3.35392 9.00622 3.88169 10.0788 4.95426 10.8108C6.02683 11.5599 7.76338 12.3261 10.1809 13.1262C11.7472 13.654 12.939 14.0967 13.7732 14.4372C14.6755 14.8117 15.6119 15.3054 16.5653 15.9183C18.4721 17.0931 19.4425 18.8296 19.4425 21.145C19.4425 23.4604 18.6083 25.3161 16.9228 26.7292C15.2714 28.1082 13.0582 28.8063 10.2661 28.8063L10.215 28.8233Z" fill="white"/>
<path d="M52.1984 24.6351C49.4063 27.4272 46.0013 28.8233 41.9835 28.8233C37.9656 28.8233 34.5606 27.4272 31.7685 24.6351C28.9764 21.809 27.5803 18.404 27.5803 14.4201C27.5803 10.4363 28.9764 7.0313 31.7685 4.2392C34.5606 1.41306 37.9656 0 41.9835 0C46.0013 0 49.4063 1.41306 52.1984 4.2392C54.9905 7.0313 56.3866 10.4193 56.3866 14.4201C56.3866 18.421 54.9905 21.809 52.1984 24.6351ZM33.2496 23.205C35.6502 25.6055 38.5614 26.7973 41.9835 26.7973C45.4055 26.7973 48.3338 25.6055 50.6832 23.205C53.0667 20.7534 54.2755 17.8251 54.2755 14.4372C54.2755 11.0492 53.0837 8.08685 50.6832 5.70335C48.3338 3.28581 45.4395 2.07702 41.9835 2.07702C38.5274 2.07702 35.6331 3.28581 33.2496 5.70335C30.8832 8.1209 29.7084 11.0322 29.7084 14.4372C29.7084 17.8422 30.8832 20.7705 33.2496 23.205Z" fill="white"/>
<path d="M79.4381 28.8233C75.267 28.8233 71.7939 27.4443 69.0188 24.6693C66.2778 21.9112 64.9158 18.4892 64.9158 14.4202C64.9158 10.3512 66.2948 6.94624 69.0188 4.20522C71.7768 1.41312 75.2499 0.0170898 79.4381 0.0170898C82.0088 0.0170898 84.3583 0.629992 86.4524 1.85579C88.6145 3.08159 90.2489 4.69896 91.4066 6.72494L89.5339 7.79749C88.6316 6.09499 87.2525 4.71599 85.4309 3.64342C83.6433 2.58787 81.6513 2.04307 79.4381 2.04307C75.8458 2.04307 72.8664 3.23482 70.5 5.63534C68.1846 8.00181 67.0269 10.9301 67.0269 14.4202C67.0269 17.9103 68.1846 20.8386 70.5 23.2392C72.8664 25.6056 75.8458 26.7974 79.4381 26.7974C81.6002 26.7974 83.5922 26.2696 85.4479 25.197C87.3036 24.1415 88.6826 22.7114 89.619 20.9238L91.4918 21.9963C90.3511 24.0734 88.6997 25.7248 86.5205 26.9676C84.3583 28.2105 81.9918 28.8233 79.4381 28.8233Z" fill="white"/>
<path d="M101.264 28.3805V0.459473H103.376V28.3805H101.264Z" fill="white"/>
<path d="M136.132 28.3805H133.901L131.194 21.281H117.183L114.476 28.3805H112.246L123.091 0.459473H125.321L136.132 28.3805ZM124.197 3.04728L117.966 19.2891H130.411L124.197 3.04728Z" fill="white"/>
<path d="M147.096 0.459473V26.3885H160.256V28.3805H144.985V0.459473H147.096Z" fill="white"/>
<path d="M197.813 28.8233C193.642 28.8233 190.169 27.4443 187.394 24.6693C184.653 21.9112 183.291 18.4892 183.291 14.4202C183.291 10.3512 184.67 6.94624 187.394 4.20522C190.152 1.41312 193.625 0.0170898 197.813 0.0170898C200.384 0.0170898 202.733 0.629992 204.827 1.85579C206.989 3.08159 208.624 4.69896 209.781 6.72494L207.909 7.79749C207.006 6.09499 205.627 4.71599 203.806 3.64342C202.018 2.58787 200.026 2.04307 197.813 2.04307C194.221 2.04307 191.241 3.23482 188.875 5.63534C186.559 8.00181 185.402 10.9301 185.402 14.4202C185.402 17.9103 186.559 20.8386 188.875 23.2392C191.241 25.6056 194.221 26.7974 197.813 26.7974C199.975 26.7974 201.967 26.2696 203.823 25.197C205.678 24.1415 207.057 22.7114 207.994 20.9238L209.867 21.9963C208.726 24.0734 207.074 25.7248 204.895 26.9676C202.733 28.2105 200.367 28.8233 197.813 28.8233Z" fill="white"/>
<path d="M242.657 24.6351C239.865 27.4272 236.46 28.8233 232.442 28.8233C228.424 28.8233 225.019 27.4272 222.227 24.6351C219.435 21.809 218.039 18.404 218.039 14.4201C218.039 10.4363 219.435 7.0313 222.227 4.2392C225.019 1.41306 228.424 0 232.442 0C236.46 0 239.865 1.41306 242.657 4.2392C245.449 7.0313 246.845 10.4193 246.845 14.4201C246.845 18.421 245.449 21.809 242.657 24.6351ZM223.708 23.205C226.109 25.6055 229.02 26.7973 232.442 26.7973C235.864 26.7973 238.792 25.6055 241.142 23.205C243.525 20.7534 244.734 17.8251 244.734 14.4372C244.734 11.0492 243.542 8.08685 241.142 5.70335C238.792 3.28581 235.898 2.07702 232.442 2.07702C228.986 2.07702 226.092 3.28581 223.708 5.70335C221.342 8.1209 220.167 11.0322 220.167 14.4372C220.167 17.8422 221.342 20.7705 223.708 23.205Z" fill="white"/>
<path d="M272.451 0.459473V2.45139H259.086V13.6198H271.974V15.6117H259.086V28.3805H256.975V0.459473H272.451Z" fill="white"/>
<path d="M297.903 0.459473V2.45139H284.538V13.6198H297.426V15.6117H284.538V28.3805H282.427V0.459473H297.903Z" fill="white"/>
<path d="M309.991 15.2882V26.3885H323.951V28.3805H307.88V0.459473H323.764V2.45139H310.008V13.2963H322.777V15.2882H310.008H309.991Z" fill="white"/>
<path d="M336.039 15.2882V26.3885H349.999V28.3805H333.928V0.459473H349.812V2.45139H336.056V13.2963H348.825V15.2882H336.056H336.039Z" fill="white"/>
</svg>
